<?xml version="1.0" encoding="iso-8859-1"?>
<!-- Generator: Adobe Illustrator 16.0.0, SVG Export Plug-In . SVG Version: 6.00 Build 0)  -->
<!DOCTYPE svg PUBLIC "-//W3C//DTD SVG 1.1//EN" "http://www.w3.org/Graphics/SVG/1.1/DTD/svg11.dtd">
<svg version="1.1" id="Capa_1" xmlns="http://www.w3.org/2000/svg" xmlns:xlink="http://www.w3.org/1999/xlink" x="0px" y="0px"
	 width="612.02px" height="612.019px" viewBox="0 0 612.02 612.019" style="enable-background:new 0 0 612.02 612.019;"
	 xml:space="preserve">
<g>
	<g>
		<g>
			<g>
				<path d="M503.612,142.661c-5.279,0-9.563-4.283-9.563-9.562c0-5.279,4.283-9.562,9.563-9.562h49.402
					c16.216,0,30.996,6.633,41.675,17.311l0.598,0.657c10.338,10.638,16.732,25.12,16.732,40.997V478.92
					c0,16.235-6.634,30.977-17.312,41.654c-10.678,10.677-25.459,17.311-41.674,17.311H59.005c-16.215,0-30.997-6.633-41.654-17.311
					C6.634,509.917,0,495.176,0,478.941V182.502c0-16.215,6.634-30.997,17.311-41.654c10.677-10.678,25.438-17.311,41.674-17.311
					h197.612c5.279,0,9.562,4.283,9.562,9.562c0,5.279-4.283,9.562-9.562,9.562H58.985c-10.937,0-20.917,4.502-28.128,11.713
					c-7.231,7.231-11.733,17.191-11.733,28.128V478.92c0,10.937,4.502,20.896,11.713,28.128
					c7.211,7.212,17.191,11.714,28.128,11.714h494.03c10.937,0,20.917-4.502,28.128-11.714c7.23-7.211,11.713-17.191,11.713-28.128
					V182.502c0-10.717-4.303-20.518-11.234-27.709l-0.479-0.438c-7.191-7.191-17.172-11.693-28.107-11.693L503.612,142.661
					L503.612,142.661z M595.267,141.506l-0.598,12.869C598.195,150.868,598.395,145.271,595.267,141.506z"/>
			</g>
			<path d="M315.562,133.099c0,5.279-4.282,9.562-9.562,9.562c-5.279,0-9.562-4.283-9.562-9.562
				c0-16.235,6.634-30.977,17.311-41.654c10.657-10.677,25.419-17.311,41.634-17.311h98.808c16.215,0,30.995,6.634,41.652,17.311
				c10.679,10.678,17.312,25.419,17.312,41.654c0,5.279-4.283,9.562-9.563,9.562c-5.277,0-9.562-4.283-9.562-9.562
				c0-10.937-4.502-20.917-11.713-28.128c-7.191-7.211-17.173-11.713-28.108-11.713h-98.806c-10.938,0-20.897,4.502-28.128,11.713
				C320.044,112.202,315.562,122.163,315.562,133.099z"/>
			<path d="M454.209,123.537c5.279,0,9.562,4.283,9.562,9.562c0,5.279-4.282,9.562-9.562,9.562h-98.806
				c-5.279,0-9.563-4.283-9.563-9.562c0-5.279,4.283-9.562,9.563-9.562H454.209z"/>
			<path d="M83.667,191.467c7.769,0,14.801,3.167,19.861,8.227c5.06,5.08,8.227,12.112,8.227,19.861
				c0,7.769-3.167,14.801-8.227,19.861h-0.04c-5.08,5.08-12.092,8.247-19.821,8.247s-14.741-3.167-19.821-8.227h-0.04
				c-5.08-5.08-8.227-12.132-8.227-19.861s3.167-14.741,8.227-19.821v-0.06C68.885,194.634,75.917,191.467,83.667,191.467
				L83.667,191.467z M90.001,213.239c-1.613-1.613-3.864-2.629-6.334-2.629c-2.45,0-4.721,1.016-6.335,2.629l-0.02-0.02
				c-1.593,1.613-2.589,3.864-2.589,6.354c0,2.47,0.996,4.721,2.629,6.334l-0.04,0.02c1.614,1.594,3.885,2.59,6.355,2.59
				c2.49,0,4.741-0.996,6.354-2.59l-0.02-0.02c1.614-1.614,2.63-3.885,2.63-6.335C92.631,217.123,91.615,214.853,90.001,213.239z"/>
			<path d="M404.806,191.467c38.389,0,73.188,15.578,98.408,40.797l0.021,0.02l0.021,0.02c25.199,25.22,40.797,60.021,40.797,98.408
				c0,38.447-15.598,73.288-40.776,98.468h-0.04c-25.199,25.199-60.021,40.777-98.429,40.777c-38.445,0-73.287-15.599-98.467-40.777
				s-40.778-60.021-40.778-98.468c0-38.407,15.578-73.228,40.778-98.428v-0.04C331.519,207.064,366.359,191.467,404.806,191.467
				L404.806,191.467z M489.728,245.75c-21.714-21.714-51.732-35.14-84.922-35.14c-33.167,0-63.208,13.446-84.94,35.18l-0.021-0.02
				c-21.713,21.733-35.16,51.774-35.16,84.96c0,33.168,13.446,63.209,35.179,84.941c21.732,21.733,51.773,35.181,84.94,35.181
				c33.188,0,63.229-13.447,84.962-35.16l-0.021-0.021c21.733-21.732,35.18-51.773,35.18-84.94c0-33.208-13.426-63.229-35.14-84.941
				L489.728,245.75z"/>
			<path d="M404.806,234.694c26.516,0,50.539,10.757,67.891,28.128v0.04c17.371,17.371,28.128,41.375,28.128,67.85
				c0,26.494-10.757,50.479-28.128,67.869v0.04c-17.352,17.351-41.375,28.128-67.891,28.128c-26.514,0-50.538-10.757-67.909-28.128
				v-0.04c-17.369-17.392-28.128-41.375-28.128-67.869s10.759-50.479,28.128-67.849v-0.04
				C354.268,245.471,378.292,234.694,404.806,234.694L404.806,234.694z M459.189,276.328l-0.021,0.02
				c-13.904-13.904-33.128-22.51-54.363-22.51c-21.234,0-40.479,8.626-54.362,22.51l-0.039-0.02
				c-13.886,13.924-22.49,33.147-22.49,54.403c0,21.235,8.604,40.498,22.49,54.402l0.02-0.021
				c13.904,13.904,33.147,22.511,54.363,22.511s40.459-8.625,54.363-22.511l0.02,0.021c13.885-13.904,22.49-33.167,22.49-54.402
				C481.699,309.476,473.094,290.253,459.189,276.328z"/>
			<path d="M371.141,330.732c0,5.278-4.282,9.562-9.562,9.562c-5.278,0-9.562-4.283-9.562-9.562c0-7.092,1.436-13.925,4.024-20.18
				l0.219-0.498c2.689-6.335,6.534-11.993,11.215-16.654c4.821-4.821,10.658-8.745,17.152-11.435
				c6.274-2.589,13.107-4.024,20.199-4.024c5.277,0,9.562,4.283,9.562,9.562c0,5.279-4.283,9.562-9.562,9.562
				c-4.622,0-8.965,0.896-12.869,2.51c-4.083,1.693-7.809,4.223-10.938,7.331c-3.008,3.009-5.458,6.555-7.131,10.419l-0.198,0.519
				C372.037,321.748,371.141,326.129,371.141,330.732z"/>
			<path d="M139.245,421.947c5.279,0,9.562,4.283,9.562,9.562s-4.283,9.562-9.562,9.562H65.14c-5.279,0-9.562-4.282-9.562-9.562
				c0-5.278,4.283-9.562,9.562-9.562H139.245z"/>
		</g>
	</g>
</g>
<g>
</g>
<g>
</g>
<g>
</g>
<g>
</g>
<g>
</g>
<g>
</g>
<g>
</g>
<g>
</g>
<g>
</g>
<g>
</g>
<g>
</g>
<g>
</g>
<g>
</g>
<g>
</g>
<g>
</g>
</svg>
